<?xml version="1.0" encoding="UTF-8"?>
<!DOCTYPE svg PUBLIC "-//W3C//DTD SVG 1.1//EN" "http://www.w3.org/Graphics/SVG/1.1/DTD/svg11.dtd">
<!-- Creator: CorelDRAW 2017 -->
<svg xmlns="http://www.w3.org/2000/svg" xml:space="preserve" width="4.67716in" height="2.45246in" version="1.1" style="shape-rendering:geometricPrecision; text-rendering:geometricPrecision; image-rendering:optimizeQuality; fill-rule:evenodd; clip-rule:evenodd"
viewBox="0 0 4331 2271"
 xmlns:xlink="http://www.w3.org/1999/xlink">
 <defs>
  <style type="text/css">
   <![CDATA[
    .fil2 {fill:#0C2233}
    .fil1 {fill:#C49A4A}
    .fil0 {fill:#0C2233;fill-rule:nonzero}
   ]]>
  </style>
 </defs>
 <g id="Layer_x0020_1">
  <metadata id="CorelCorpID_0Corel-Layer"/>
  <g id="_584995533104">
   <g>
    <path class="fil0" d="M721 1063c26,0 32,1 35,13l20 63c9,27 14,45 14,50 0,4 -3,10 -20,13l-24 4c-8,6 -7,21 1,26 34,-1 63,-2 99,-2 38,0 78,0 113,2 7,-4 5,-22 1,-26l-28 -4c-27,-4 -34,-21 -49,-65l-100 -288c-18,-52 -27,-79 -33,-101 -3,-11 -7,-15 -17,-15 -1,0 -29,36 -64,44 2,21 -12,47 -29,93l-66 179c-20,53 -33,88 -46,117 -13,29 -27,35 -45,37l-20 2c-5,6 -6,21 2,26 34,0 51,-2 76,-2 31,1 60,0 86,2 7,-4 6,-21 1,-26l-22 -4c-21,-4 -26,-8 -26,-13 0,-6 1,-12 5,-26l27 -85c4,-14 7,-15 24,-15l82 0zm-68 -39c-18,0 -22,-2 -15,-22l18 -55c11,-34 23,-65 30,-81 7,15 16,46 26,77l19 60c6,19 2,21 -15,21l-64 0z"/>
    <path id="1" class="fil0" d="M1025 1123c0,66 -4,71 -38,78l-21 4c-6,2 -6,21 0,26 42,-1 78,-2 114,-2 21,0 49,3 76,3 45,0 100,-2 146,-18 46,-16 87,-56 86,-124 -1,-71 -50,-110 -108,-122 -7,-1 -10,-4 -10,-6 0,-4 7,-7 15,-8 23,-6 75,-30 75,-92 0,-43 -19,-74 -51,-93 -32,-19 -79,-27 -150,-27 -74,0 -127,3 -183,7 -11,1 -10,23 -3,26l20 3c31,4 32,12 32,86l0 260zm101 -310c0,-32 1,-38 35,-38 51,0 90,32 90,96 0,44 -24,85 -87,85 -38,0 -39,-1 -39,-21l0 -121zm0 204c0,-29 0,-30 40,-30 71,0 107,45 107,109 0,60 -29,101 -83,101 -57,0 -65,-36 -65,-93l0 -87z"/>
    <path id="2" class="fil0" d="M1701 732c-154,0 -263,113 -263,258 0,154 107,251 255,251 158,0 265,-96 265,-257 0,-149 -105,-252 -258,-252zm140 262c0,119 -38,213 -134,213 -120,0 -151,-144 -151,-234 0,-123 49,-207 139,-207 91,0 146,102 146,228z"/>
    <path id="3" class="fil0" d="M2361 996c31,0 31,1 31,21l0 106c0,68 -4,76 -38,80l-16 2c-6,4 -6,21 0,26 35,-1 71,-2 108,-2 34,0 70,0 107,2 6,-4 6,-21 0,-26l-18 -3c-34,-6 -38,-11 -38,-79l0 -273c0,-68 4,-75 38,-80l15 -2c6,-4 6,-21 0,-26 -34,1 -68,2 -104,2 -35,0 -71,0 -112,-2 -6,4 -6,21 0,26l20 3c34,5 38,11 38,79l0 85c0,21 0,22 -31,22l-153 0c-30,0 -31,-1 -31,-22l0 -85c0,-68 4,-76 36,-80l15 -2c6,-4 6,-21 0,-26 -32,1 -69,2 -102,2 -35,0 -74,0 -110,-2 -6,4 -6,21 0,26l18 2c34,4 38,12 38,80l0 273c0,68 -4,76 -38,80l-18 2c-6,4 -6,21 0,26 38,-1 74,-2 110,-2 33,0 70,0 112,2 6,-4 6,-21 0,-26l-24 -3c-33,-4 -38,-11 -38,-79l0 -106c0,-20 1,-21 31,-21l153 0z"/>
    <path class="fil0" d="M326 1206c0,-126 8,-137 69,-147l35 -5c11,-8 11,-39 0,-47 -68,3 -136,4 -201,4 -65,0 -133,-1 -203,-4 -16,8 -16,39 -3,47l39 5c61,8 69,20 69,147l0 505c0,126 -8,137 -69,145l-52 7c-11,9 -8,40 4,48 84,-3 152,-4 214,-4l182 0c111,0 241,1 313,4 19,-37 52,-149 58,-220 -9,-16 -41,-22 -52,-8 -80,157 -118,161 -241,161 -99,0 -123,-11 -141,-34 -18,-22 -23,-65 -23,-129l0 -475z"/>
    <path id="1" class="fil0" d="M1275 1585c42,0 49,-19 49,-45 0,-104 -76,-195 -217,-195 -170,0 -293,133 -293,304 0,148 99,277 282,277 81,0 182,-39 237,-155 0,-23 -20,-34 -35,-31 -37,62 -88,71 -126,71 -126,0 -191,-99 -191,-201 0,-22 3,-24 34,-24l260 0zm-221 -60c-43,0 -62,-1 -62,-20 0,-43 49,-98 106,-98 46,0 72,30 72,75 0,14 -3,27 -9,31 -15,9 -37,12 -56,12l-50 0z"/>
    <path id="2" class="fil0" d="M1852 1395c-50,-27 -122,-50 -202,-50 -176,0 -265,106 -265,218 0,83 47,148 115,175 7,12 1,20 -11,30 -8,8 -49,39 -87,64 -7,7 -9,18 -9,28 0,47 34,92 84,109 11,3 15,9 -1,19 -15,8 -39,26 -66,42 -23,14 -43,35 -43,68 0,84 71,174 266,174 79,0 167,-18 237,-60 71,-43 122,-119 122,-205 0,-137 -109,-164 -210,-164 -64,0 -119,3 -166,3 -41,0 -69,-19 -69,-49 0,-16 9,-27 23,-33 15,1 34,4 56,4 214,0 278,-130 278,-237 0,-23 -1,-35 -4,-47l100 0c14,-8 20,-33 20,-54 0,-15 -3,-26 -12,-34l-156 0zm-290 145c0,-92 41,-133 83,-133 49,0 88,52 88,161 0,99 -35,138 -77,138 -54,0 -94,-64 -94,-167zm155 442c75,0 133,31 133,110 0,65 -57,107 -142,107 -107,0 -176,-60 -176,-152 0,-18 5,-35 19,-47 12,-9 39,-18 76,-18l91 0z"/>
    <path id="3" class="fil0" d="M2503 1541c7,-140 -60,-197 -174,-197 -96,0 -182,46 -228,83 -33,26 -65,69 -65,104 0,19 8,34 31,34 24,0 77,-16 98,-31 12,-9 20,-22 23,-43 9,-58 38,-77 71,-77 58,0 79,65 79,117 0,16 -1,31 -3,46 -1,11 -8,20 -33,27 -38,11 -76,22 -128,38 -99,30 -141,72 -141,141 0,95 73,142 152,142 50,0 91,-26 115,-43 14,-9 22,-15 29,-15 7,0 12,3 22,11 36,31 66,47 114,47 77,0 141,-52 157,-73 4,-12 -4,-28 -16,-31 -22,12 -35,16 -52,16 -27,0 -66,-24 -61,-117l9 -179zm-175 229c-1,42 -9,66 -52,66 -38,0 -69,-38 -69,-81 0,-64 53,-87 114,-95 9,-1 11,3 9,24l-3 85z"/>
    <path id="4" class="fil0" d="M2694 1749c0,95 -5,107 -50,111l-26 3c-11,8 -11,39 1,47 47,-3 104,-4 163,-4 61,0 118,1 163,4 12,-8 12,-39 1,-47l-23 -3c-47,-5 -53,-16 -53,-111l0 -605c0,-85 1,-142 4,-198 -5,-7 -15,-9 -23,-9 -68,30 -149,62 -208,76 -9,8 -9,33 0,41l23 14c27,16 27,31 27,85l0 597z"/>
   </g>
   <g>
    <path class="fil1" d="M3106 1441c323,19 562,130 618,439l-618 0 0 -439z"/>
    <path class="fil2" d="M2989 1297c539,41 767,109 858,639l483 0c-24,-72 -587,-1195 -614,-1218l-357 -718c-24,39 -159,312 -205,423 -19,45 -11,77 13,120 423,757 616,752 -179,754z"/>
   </g>
  </g>
 </g>
</svg>
